HIERARCHY
ROOT Hips
{
	OFFSET 0.000000 0.000000 0.000000
	CHANNELS 6 Xposition Yposition Zposition Yrotation Xrotation Zrotation
	JOINT Chest
	{
		OFFSET 0.000000 -0.009281 11.569106
		CHANNELS 3 Yrotation Xrotation Zrotation
		JOINT Chest2
		{
			OFFSET -0.000000 0.016865 9.269641
			CHANNELS 3 Yrotation Xrotation Zrotation
			JOINT Chest3
			{
				OFFSET -0.000000 0.000001 8.374491
				CHANNELS 3 Yrotation Xrotation Zrotation
				JOINT Chest4
				{
					OFFSET -0.000000 0.000001 8.374493
					CHANNELS 3 Yrotation Xrotation Zrotation
					JOINT Neck
					{
						OFFSET -0.000000 0.000002 12.152554
						CHANNELS 3 Yrotation Xrotation Zrotation
						JOINT Head
						{
							OFFSET -0.000000 0.040101 7.802319
							CHANNELS 3 Yrotation Xrotation Zrotation
							End Site
							{
								OFFSET -0.000000 0.020947 14.853096
							}
						}
					}
					JOINT RightCollar
					{
						OFFSET 2.894404 0.000001 6.791374
						CHANNELS 3 Yrotation Xrotation Zrotation
						JOINT RightShoulder
						{
							OFFSET 13.574684 0.000001 0.000000
							CHANNELS 3 Yrotation Xrotation Zrotation
							JOINT RightElbow
							{
								OFFSET 23.923903 0.000002 0.000000
								CHANNELS 3 Yrotation Xrotation Zrotation
								JOINT RightWrist
								{
									OFFSET 19.846718 0.012767 0.000000
									CHANNELS 3 Yrotation Xrotation Zrotation
									End Site
									{
										OFFSET 14.973145 0.000001 0.000000
									}
								}
							}
						}
					}
					JOINT LeftCollar
					{
						OFFSET -2.894404 0.000001 6.791374
						CHANNELS 3 Yrotation Xrotation Zrotation
						JOINT LeftShoulder
						{
							OFFSET -13.574684 -0.000001 0.000000
							CHANNELS 3 Yrotation Xrotation Zrotation
							JOINT LeftElbow
							{
								OFFSET -23.923903 -0.000002 0.000000
								CHANNELS 3 Yrotation Xrotation Zrotation
								JOINT LeftWrist
								{
									OFFSET -19.846718 0.012763 0.000000
									CHANNELS 3 Yrotation Xrotation Zrotation
									End Site
									{
										OFFSET -14.973145 -0.000001 0.000000
									}
								}
							}
						}
					}
				}
			}
		}
	}
	JOINT RightHip
	{
		OFFSET 9.469263 0.004643 0.045487
		CHANNELS 3 Yrotation Xrotation Zrotation
		JOINT RightKnee
		{
			OFFSET 0.000000 0.002661 -40.478676
			CHANNELS 3 Yrotation Xrotation Zrotation
			JOINT RightAnkle
			{
				OFFSET 0.000000 0.049106 -35.224068
				CHANNELS 3 Yrotation Xrotation Zrotation
				JOINT RightToe
				{
					OFFSET -0.000001 12.539529 -6.151390
					CHANNELS 3 Yrotation Xrotation Zrotation
					End Site
					{
						OFFSET -0.000001 5.044994 -1.291870
					}
				}
			}
		}
	}
	JOINT LeftHip
	{
		OFFSET -9.469263 0.004641 0.045487
		CHANNELS 3 Yrotation Xrotation Zrotation
		JOINT LeftKnee
		{
			OFFSET 0.000000 0.002661 -40.478676
			CHANNELS 3 Yrotation Xrotation Zrotation
			JOINT LeftAnkle
			{
				OFFSET 0.000000 0.049106 -35.224068
				CHANNELS 3 Yrotation Xrotation Zrotation
				JOINT LeftToe
				{
					OFFSET -0.000001 12.539529 -6.151390
					CHANNELS 3 Yrotation Xrotation Zrotation
					End Site
					{
						OFFSET -0.000001 5.044994 -1.291870
					}
				}
			}
		}
	}
}
MOTION
Frames: 15
Frame Time: 0.016667
10.997541 3.310471 82.874870 -7.223670 -3.015134 -112.105992 0.471990 -2.748433 0.777319 0.200242 -1.213651 0.356158 0.200242 -1.213651 0.356154 0.150883 -0.910122 0.267506 -0.619054 -19.569742 -1.239374 -1.518181 -0.180679 -2.457695 7.409516 1.154169 0.558740 86.996611 -4.622891 12.931366 61.267712 16.073959 43.022118 -52.210103 45.653022 4.113293 -8.514720 -4.214278 -10.235922 -58.614375 -7.778212 -45.666898 -4.329676 -36.143934 -20.274080 38.216076 -0.872058 -76.774345 0.307902 -10.493073 -1.590180 1.224140 -4.100321 -3.070678 -1.456515 6.661477 2.806923 0.139746 -0.009425 -0.128295 -0.497452 -11.811269 0.423121 1.167188 -2.201265 4.430960 -0.433474 6.072993 -3.015140 0.043020 -0.151421 0.118501 
11.056193 3.334459 82.868736 -7.231204 -3.053927 -112.247267 0.468544 -2.779320 0.762115 0.199342 -1.228895 0.347905 0.199342 -1.228895 0.347903 0.150200 -0.921559 0.261321 -0.627092 -19.405483 -1.171896 -1.515342 0.125687 -2.340014 7.414054 1.220320 0.601403 86.956696 -4.502328 12.813583 61.788698 15.605584 43.054787 -52.182662 45.605532 4.041558 -8.533481 -4.184680 -10.210422 -58.708065 -7.960585 -45.511856 -4.103840 -35.918384 -19.885652 38.248803 -0.832969 -76.821371 0.262395 -10.417968 -1.492588 1.252183 -4.339830 -2.961617 -1.484605 6.765387 2.740359 0.134365 0.005906 -0.125296 -0.520472 -11.852562 0.451080 1.136996 -2.276484 4.545357 -0.387044 6.178312 -2.963201 0.044336 -0.131187 0.118540 
11.115145 3.358739 82.863052 -7.247573 -3.092025 -112.388686 0.460196 -2.799929 0.752475 0.195850 -1.238784 0.342351 0.195850 -1.238784 0.342351 0.147575 -0.928979 0.257149 -0.618647 -19.288855 -1.111920 -1.483466 0.343817 -2.229833 7.413573 1.209881 0.628295 86.932612 -4.382805 12.743129 62.314104 15.170738 43.098289 -51.967453 45.533067 3.935333 -8.546881 -4.201126 -10.193824 -58.782097 -8.123502 -45.395838 -3.903932 -35.721480 -19.506033 38.266452 -0.908204 -76.788682 0.214239 -10.357073 -1.416529 1.280876 -4.566712 -2.851042 -1.511390 6.865734 2.690357 0.127938 0.017283 -0.122751 -0.541758 -11.905056 0.452358 1.099632 -2.343399 4.684133 -0.343094 6.274774 -2.906053 0.047858 -0.112167 0.118455 
11.174363 3.377462 82.856537 -7.262915 -3.129476 -112.531007 0.452578 -2.820562 0.740498 0.191806 -1.247832 0.336730 0.191806 -1.247832 0.336728 0.144537 -0.935768 0.252932 -0.601734 -19.203442 -1.065614 -1.439607 0.503841 -2.141288 7.409755 1.204065 0.659031 86.912620 -4.285873 12.676222 62.832659 14.748371 43.142108 -51.769299 45.380470 3.765916 -8.568662 -4.194609 -10.174608 -58.830236 -8.283406 -45.286647 -3.735280 -35.536665 -19.127086 38.270629 -1.008069 -76.728002 0.179381 -10.306691 -1.342995 1.285146 -4.770512 -2.737995 -1.532393 6.957134 2.655460 0.126865 0.025077 -0.117465 -0.560654 -11.961595 0.445359 1.064036 -2.401923 4.831557 -0.303639 6.367824 -2.874231 0.049900 -0.096776 0.116377 
11.233865 3.393621 82.849930 -7.280165 -3.168305 -112.669202 0.448510 -2.834123 0.723871 0.189988 -1.253457 0.329152 0.189988 -1.253458 0.329149 0.143160 -0.939991 0.247242 -0.576995 -19.147358 -1.032819 -1.385026 0.609241 -2.074387 7.409179 1.220017 0.695280 86.869085 -4.210840 12.603549 63.338605 14.324590 43.145226 -51.742136 45.232422 3.599158 -8.599639 -4.171630 -10.155971 -58.865453 -8.468040 -45.165142 -3.573101 -35.313622 -18.739491 38.320650 -1.094476 -76.670759 0.155618 -10.268178 -1.266046 1.281957 -4.959399 -2.639733 -1.556341 7.046192 2.600038 0.128009 0.029509 -0.113270 -0.576096 -12.022490 0.416429 1.026497 -2.458213 4.979430 -0.264590 6.463457 -2.825719 0.051889 -0.087134 0.113528 
11.296746 3.405135 82.844589 -7.300951 -3.210770 -112.805068 0.450505 -2.834410 0.703952 0.190499 -1.252899 0.320777 0.190499 -1.252899 0.320776 0.143526 -0.939575 0.240963 -0.541989 -19.116721 -1.007838 -1.313577 0.667420 -2.018027 7.413674 1.248883 0.727405 86.792505 -4.151486 12.508673 63.868102 13.878517 43.118622 -51.751121 45.190318 3.487032 -8.627853 -4.158665 -10.131189 -58.929609 -8.685851 -45.015028 -3.379835 -35.042060 -18.376047 38.358486 -1.207804 -76.568026 0.131588 -10.246061 -1.191313 1.278227 -5.128907 -2.547013 -1.575571 7.129125 2.584369 0.128303 0.031935 -0.109117 -0.581408 -12.093325 0.395470 0.982636 -2.508537 5.109118 -0.228672 6.557925 -2.794103 0.055249 -0.078658 0.109988 
11.362034 3.413068 82.840408 -7.329068 -3.257568 -112.935040 0.453602 -2.832273 0.685554 0.191530 -1.251815 0.313561 0.191530 -1.251814 0.313563 0.144284 -0.938763 0.235553 -0.497248 -19.102258 -0.990525 -1.226418 0.695568 -1.972298 7.418940 1.283007 0.750547 86.721881 -4.071285 12.379038 64.417761 13.355878 43.091209 -51.757599 45.198732 3.390326 -8.656846 -4.163748 -10.120039 -59.005267 -8.869814 -44.864419 -3.192618 -34.797645 -18.030074 38.394139 -1.392021 -76.382388 0.114177 -10.242996 -1.150130 1.273734 -5.285886 -2.445380 -1.595753 7.210287 2.576739 0.126216 0.034336 -0.107311 -0.585448 -12.168160 0.397146 0.935330 -2.575123 5.244291 -0.196197 6.662363 -2.755774 0.060753 -0.069060 0.108353 
11.428513 3.423099 82.836639 -7.360647 -3.307584 -113.062450 0.455632 -2.830759 0.666901 0.193281 -1.251920 0.306079 0.193281 -1.251920 0.306074 0.145581 -0.938843 0.229946 -0.452561 -19.098368 -0.968726 -1.137724 0.704117 -1.918195 7.419985 1.277842 0.793967 86.672150 -3.934479 12.247561 65.017978 12.757520 43.088320 -51.743099 45.254545 3.296618 -8.694465 -4.165579 -10.107245 -59.070645 -9.031892 -44.720810 -3.000587 -34.584892 -17.689951 38.429482 -1.573622 -76.223873 0.089251 -10.239365 -1.127601 1.278900 -5.453275 -2.324829 -1.615343 7.293958 2.553296 0.122036 0.038775 -0.107090 -0.590729 -12.235502 0.398073 0.895762 -2.664889 5.385208 -0.167424 6.778303 -2.723913 0.062367 -0.060607 0.105749 
11.493209 3.435872 82.832596 -7.394219 -3.360362 -113.183024 0.457988 -2.827396 0.644965 0.195477 -1.251470 0.297326 0.195477 -1.251470 0.297325 0.147211 -0.938509 0.223387 -0.412159 -19.105574 -0.940860 -1.054745 0.692024 -1.854188 7.415922 1.277084 0.841210 86.628252 -3.781941 12.072750 65.688552 12.087468 43.117301 -51.736682 45.342952 3.203510 -8.723809 -4.185270 -10.087900 -59.093943 -9.185728 -44.611463 -2.816444 -34.351665 -17.383082 38.413308 -1.807867 -76.035551 0.070735 -10.233753 -1.094459 1.274880 -5.628276 -2.223334 -1.628809 7.380474 2.545884 0.119532 0.043124 -0.105855 -0.604449 -12.296485 0.393056 0.872576 -2.769238 5.506971 -0.138781 6.900607 -2.681710 0.060372 -0.054115 0.102357 
11.556827 3.448826 82.827904 -7.423189 -3.411210 -113.301664 0.459641 -2.823819 0.621693 0.196499 -1.250092 0.288099 0.196499 -1.250092 0.288099 0.147958 -0.937476 0.216466 -0.377019 -19.115558 -0.906035 -0.979147 0.674736 -1.779077 7.414654 1.288316 0.885376 86.570216 -3.583837 11.865718 66.410906 11.330370 43.131183 -51.670511 45.448758 3.111380 -8.745294 -4.195527 -10.065167 -59.104448 -9.322751 -44.495547 -2.640945 -34.124557 -17.081417 38.462090 -2.050244 -75.866859 0.052408 -10.219820 -1.066230 1.269721 -5.808538 -2.119066 -1.642462 7.470024 2.545291 0.118411 0.045774 -0.102771 -0.613195 -12.343368 0.403794 0.844551 -2.889757 5.595445 -0.107466 7.032066 -2.641179 0.057733 -0.049930 0.098890 
11.618441 3.460796 82.823387 -7.454162 -3.461523 -113.415168 0.461607 -2.822209 0.592588 0.197306 -1.249584 0.276102 0.197306 -1.249584 0.276100 0.148539 -0.937099 0.207472 -0.346841 -19.122629 -0.860933 -0.909418 0.662851 -1.686797 7.413294 1.333055 0.925136 86.476581 -3.381555 11.609111 67.191699 10.485423 43.131507 -51.624335 45.640485 3.006975 -8.766982 -4.179599 -10.031857 -59.135812 -9.465006 -44.361515 -2.457720 -33.909560 -16.740811 38.478981 -2.182670 -75.749940 0.032572 -10.205278 -1.062393 1.268741 -5.994710 -2.005597 -1.655567 7.562537 2.541068 0.113810 0.048499 -0.101695 -0.619950 -12.387586 0.425570 0.810712 -3.016825 5.674207 -0.074891 7.164783 -2.595287 0.056955 -0.045047 0.098428 
11.676755 3.472285 82.819443 -7.487245 -3.509140 -113.526794 0.459164 -2.818908 0.563006 0.195934 -1.248958 0.263738 0.195935 -1.248958 0.263737 0.147484 -0.936634 0.198196 -0.318298 -19.127446 -0.809508 -0.840711 0.655147 -1.583494 7.417520 1.376090 0.962790 86.353610 -3.144136 11.340380 68.029121 9.576474 43.096369 -51.653637 45.872783 2.885032 -8.777345 -4.162022 -9.992014 -59.163898 -9.616719 -44.238210 -2.301631 -33.658667 -16.383985 38.471710 -2.334993 -75.593487 0.002444 -10.183297 -1.068063 1.280399 -6.193247 -1.893249 -1.672069 7.658138 2.554614 0.108168 0.052185 -0.101020 -0.626083 -12.425793 0.437345 0.774011 -3.152309 5.753861 -0.041807 7.295694 -2.540931 0.055426 -0.037802 0.098502 
11.730532 3.485403 82.815178 -7.528112 -3.558076 -113.638563 0.453827 -2.817639 0.538846 0.193569 -1.249569 0.253520 0.193569 -1.249568 0.253521 0.145689 -0.937096 0.190527 -0.284693 -19.136716 -0.758565 -0.762842 0.639163 -1.479425 7.419589 1.437051 0.998543 86.192445 -2.888532 11.040713 68.928589 8.639079 43.043961 -51.716468 46.167298 2.756921 -8.783266 -4.149944 -9.960449 -59.187831 -9.737492 -44.121482 -2.161629 -33.420023 -16.027415 38.462475 -2.566980 -75.393424 -0.023222 -10.163479 -1.053328 1.286891 -6.397255 -1.794309 -1.689300 7.754572 2.538548 0.103891 0.054985 -0.099699 -0.642476 -12.469272 0.431850 0.752329 -3.284350 5.845744 -0.012611 7.420697 -2.495356 0.051510 -0.031994 0.097054 
11.782256 3.493644 82.810547 -7.569187 -3.608790 -113.747163 0.448721 -2.827144 0.510848 0.191240 -1.253713 0.241925 0.191240 -1.253713 0.241926 0.143920 -0.940209 0.181830 -0.248300 -19.146089 -0.707338 -0.679793 0.622919 -1.373964 7.397164 1.494246 1.031874 86.020502 -2.688922 10.737944 69.880287 7.681875 43.028450 -51.694799 46.552947 2.563078 -8.794168 -4.108466 -9.923184 -59.207577 -9.841959 -43.999365 -2.022974 -33.203742 -15.681477 38.404511 -2.836101 -75.163575 -0.040501 -10.149774 -1.039923 1.280702 -6.588565 -1.702050 -1.701847 7.847547 2.560445 0.102422 0.054532 -0.095730 -0.658451 -12.520229 0.419187 0.736072 -3.403194 5.945069 0.016999 7.540296 -2.433267 0.044332 -0.028514 0.094151 
11.836579 3.501645 82.806206 -7.609980 -3.657911 -113.851153 0.436590 -2.826709 0.485846 0.186969 -1.252958 0.232199 0.186969 -1.252958 0.232201 0.140697 -0.939647 0.174525 -0.206116 -19.169785 -0.660917 -0.587531 0.580002 -1.275347 7.385445 1.532880 1.057022 85.847022 -2.538187 10.395924 70.902636 6.694007 43.080500 -51.730985 46.810316 2.257912 -8.796496 -4.091368 -9.889236 -59.203923 -9.943348 -43.893620 -1.888639 -32.976894 -15.323080 38.361549 -3.079803 -74.980724 -0.052664 -10.148736 -1.058996 1.267376 -6.760915 -1.596217 -1.710943 7.935761 2.571914 0.098567 0.053445 -0.094835 -0.673777 -12.579603 0.407860 0.720526 -3.503661 6.045051 0.043117 7.648303 -2.379842 0.039688 -0.023539 0.091717 
